PathFileType	4	(X/Y/Z)	D:\TRACE\spot_10-12-23\spot_body_motion_3_5-v60.trc
DataRate	CameraRate	NumFrames	NumMarkers	Units	OrigDataRate	OrigDataStartFrame	OrigNumFrames
100.00	100.00	      39	9	mm	100.00	2626	      7000
Frame#	Time	front left toe			Front right toe			aft left toe			aft right toe			Arm			FL body			FR body			AL Body			AR Body			
		X1	Y1	Z1	X2	Y2	Z2	X3	Y3	Z3	X4	Y4	Z4	X5	Y5	Z5	X6	Y6	Z6	X7	Y7	Z7	X8	Y8	Z8	X9	Y9	Z9	

2626	26.250	-287.82236	19.33830	111.43315	230.61011	17.08726	81.34019	-188.69556	-25.85723	609.72314	292.42438	-24.11279	507.22827	-26.01188	807.25208	-55.01834	-106.52174	542.69940	-35.51235	43.95725	549.81543	-59.70148	29.96136	510.49951	836.94373	179.09491	510.95755	815.99023	
2627	26.260	-288.01129	19.17967	111.62473	230.31046	17.13258	81.35842	-188.79994	-26.21047	609.85272	292.07828	-24.39300	507.20068	-27.19897	807.41003	-55.55078	-108.14703	543.01947	-36.01188	42.31495	549.93488	-60.52282	28.85181	509.84100	836.32440	177.40938	510.16425	814.90979	
2628	26.270	-288.12003	19.01119	111.75101	229.98386	17.14228	81.36770	-189.13666	-26.75202	609.95496	292.52338	-24.59580	506.96136	-28.82529	807.47638	-56.21113	-109.88955	543.42114	-36.82965	40.84371	550.14026	-61.85638	27.40271	509.53177	835.54181	176.01643	509.63144	814.36182	
2629	26.280	-288.41742	18.85845	111.86099	229.87280	17.42109	81.51519	-189.47472	-27.47115	609.95294	292.55505	-24.76893	506.97729	-29.84523	807.50360	-56.74058	-111.62447	543.48163	-37.57948	39.04713	550.19604	-62.48205	24.72495	509.32678	834.71338	174.40417	508.84479	813.44037	
2630	26.290	-288.52405	18.67594	111.87642	231.10802	18.55453	80.84423	-189.68202	-27.83037	609.95795	292.12881	-25.29393	506.99191	-31.67034	807.72089	-57.49693	-113.16319	543.64478	-38.43480	36.97337	550.12891	-63.03672	22.65785	508.74585	833.90515	172.72989	508.26715	812.31451	
2631	26.300	-288.70187	18.55261	111.89790	230.65152	18.72488	81.03172	-189.80467	-28.20448	610.06476	291.94440	-25.56367	507.06134	-33.12294	807.93347	-58.15789	-114.93291	543.92487	-39.39709	35.41732	550.09363	-63.83802	22.10047	508.00067	832.76959	170.96793	507.29599	811.55023	
2632	26.310	-288.92761	18.41848	111.91457	230.56265	18.74098	81.03962	-189.94708	-28.58451	610.29480	291.47794	-25.95683	507.14517	-34.71296	808.11798	-58.74916	-117.10765	544.12579	-40.25787	33.88008	550.58881	-65.24442	20.28103	506.95844	831.73248	169.26768	506.61777	810.52795	
2633	26.320	-289.23843	18.22193	111.97391	230.20354	18.87064	81.69433	-190.18806	-29.10041	610.43994	291.35172	-26.23220	507.17639	-36.58992	808.39990	-59.68014	-118.99113	544.27991	-41.51072	31.82153	550.51715	-65.95094	17.58980	506.94470	830.70160	167.41586	505.68954	809.45526	
2634	26.330	-289.46017	17.92715	112.00682	230.22682	18.85543	81.49019	-190.45825	-29.61484	610.33844	290.72580	-26.47411	507.64615	-38.41708	808.31537	-60.61227	-120.84658	544.44690	-42.49623	29.64897	550.63129	-67.54305	16.49395	505.66638	829.70123	165.23390	504.94647	808.01294	
2635	26.340	-289.71191	17.80342	111.99438	230.26964	18.85632	81.81161	-190.53328	-30.02040	610.47052	291.50906	-26.90942	507.46866	-40.44506	808.40436	-61.64773	-122.94781	544.47046	-43.93465	27.40473	550.73145	-68.87652	14.12982	504.84271	828.00385	163.24394	504.24359	806.96655	
2636	26.350	-289.66156	17.92128	111.70898	229.79631	19.00776	81.71516	-190.55232	-30.36197	610.75739	291.24179	-27.44127	507.86154	-42.55350	808.43079	-62.77479	-125.42725	544.40808	-45.21116	25.19188	550.39569	-69.73672	12.03067	503.75702	827.17517	160.67065	503.41986	805.30042	
2637	26.360	-290.02002	17.13727	111.89586	229.12511	18.25468	81.25893	-191.25534	-31.80925	610.42877	290.79718	-26.66565	507.15259	-45.00218	808.42798	-63.83913	-127.83540	544.66467	-46.56348	22.92159	550.85461	-71.54991	9.11307	502.84268	825.11078	158.15414	502.07779	804.07404	
2638	26.370	-290.86295	16.86950	111.91288	228.04340	18.88476	81.13023	-192.57721	-33.04863	610.73712	296.94162	-19.53173	509.13812	-47.50754	808.62714	-64.95444	-130.62973	545.18915	-48.12981	20.09332	550.84869	-72.51029	6.60628	502.07410	824.01282	156.49776	500.20456	802.09937	
2639	26.380	-291.72437	17.07595	112.48668	227.21387	18.76264	80.34337	-192.82968	-33.86377	611.22864	289.68900	-11.96502	519.89319	-49.47734	808.94489	-65.91903	-133.42004	546.07861	-49.25960	17.26844	551.24286	-74.46155	4.92761	500.77722	822.36957	154.94748	498.30887	800.48291	
2640	26.390	-291.81876	16.99881	112.25095	226.18016	19.34652	80.47843	-192.64766	-33.87825	610.99896	294.25244	-1.47660	524.67236	-50.79087	809.57141	-67.04937	-136.36041	546.16113	-50.44892	14.15229	550.85889	-75.82384	4.14628	499.81079	820.47723	152.80069	497.08588	798.62335	
2641	26.400	-292.24149	16.27460	112.46913	225.99319	19.40635	80.54104	-192.55743	-34.00834	610.62006	294.49341	12.37282	528.32526	-52.70631	809.66046	-68.16156	-138.58934	545.91162	-51.87800	11.86700	550.40558	-77.62644	1.85032	499.38968	819.22650	150.68779	496.74442	797.49396	
2642	26.410	-293.01212	15.50742	112.66923	226.47185	19.24028	80.87645	-192.79102	-34.39271	611.08398	300.15704	25.63122	520.99457	-54.65078	808.93427	-69.37090	-140.58717	545.01715	-52.89501	10.16076	549.14441	-78.06154	-0.33337	499.36765	817.66870	148.24561	496.43698	796.39319	
2643	26.420	-293.35571	15.09014	112.54288	226.22661	19.45014	80.72487	-193.53664	-35.27368	610.82440	301.78244	40.30651	517.86249	-56.81796	807.43738	-70.79578	-142.27296	544.75378	-54.04593	8.46943	548.80157	-79.03284	-2.46799	498.46655	817.38776	145.67017	496.13321	795.23914	
2644	26.430	-293.50290	15.19645	112.65239	225.74161	19.56425	80.78791	-193.95262	-35.85434	610.97650	301.66455	51.97708	513.56732	-58.75934	806.30823	-72.10615	-144.07162	544.31024	-55.11251	6.56490	548.53796	-79.96471	-4.71535	497.67172	816.37775	143.72968	495.38721	794.21582	
2645	26.440	-293.77499	15.23337	112.72968	225.43535	19.51545	80.78059	-194.27483	-36.58466	611.03485	300.77432	59.32482	515.67072	-60.59859	806.53644	-73.03632	-145.70334	543.73950	-56.01069	4.84296	548.30750	-81.02718	-6.97346	497.21027	814.93396	142.33308	494.50906	793.53473	
2646	26.450	-294.06543	15.13519	112.85360	225.12979	19.23198	80.84872	-194.39644	-37.11053	611.05365	300.38882	68.24139	520.86591	-61.94008	806.72638	-73.45977	-147.44492	543.85065	-57.11823	3.29167	548.26556	-81.88418	-7.60458	496.29639	814.41040	140.62120	493.99142	792.61981	
2647	26.460	-294.32593	15.02183	112.96835	224.79866	19.36912	80.84103	-194.39392	-37.43120	611.12939	302.79749	75.15830	525.05994	-63.27295	806.80920	-74.06643	-149.04642	543.46289	-57.97209	1.51878	548.14941	-82.78890	-9.99813	495.66922	813.13269	138.95442	493.37714	791.27533	
2648	26.470	-294.73163	14.83148	113.01327	224.56119	19.48398	81.04135	-194.62447	-37.80365	611.19287	304.92786	82.54933	527.71844	-64.65667	806.41730	-74.55983	-150.57869	543.47711	-58.74374	-0.21457	548.22284	-84.34363	-11.23417	494.82956	812.81293	137.41689	492.77078	790.67761	
2649	26.480	-294.90927	14.49345	113.09126	224.20171	18.82685	81.64692	-195.04898	-38.48499	611.23450	310.22119	89.80173	527.70105	-66.23064	806.08026	-75.32106	-151.86621	543.14258	-59.51439	-1.06153	547.56549	-84.18055	-13.45447	494.46570	811.68890	135.42459	492.05902	789.98932	
2650	26.490	-295.04999	14.35145	113.02347	224.10164	18.77350	81.70741	-195.38333	-39.07900	611.21216	313.07898	94.11622	527.76184	-67.83569	805.81152	-75.83930	-153.01590	542.63837	-60.08377	-2.42238	547.41431	-84.90089	-15.54017	493.68781	810.97223	133.85132	491.68225	789.62823	
2651	26.500	-295.19730	14.24755	112.95374	223.87106	18.87279	81.88054	-195.46135	-39.43101	611.20984	316.07574	95.06680	528.88989	-69.58138	805.45087	-76.30446	-154.06889	542.39941	-60.84818	-3.21380	547.33118	-85.27370	-16.52214	493.35233	810.53680	132.40808	491.22015	789.38550	
2652	26.510	-295.44128	14.11351	113.03374	223.51071	18.91378	81.91988	-195.87878	-39.99274	611.40033	317.40900	93.77388	531.30078	-70.95508	805.27991	-76.66615	-155.15305	542.37268	-61.48249	-4.41422	547.33044	-85.91592	-17.82997	492.39056	810.31378	131.02771	490.61853	788.79700	
2653	26.520	-295.62585	14.07356	113.18436	223.23483	18.80671	82.01463	-196.22661	-40.60331	611.51929	318.95142	91.53006	533.45282	-71.98473	805.36176	-76.82816	-156.14969	542.27808	-61.81588	-5.67059	547.43060	-86.30776	-19.12906	492.51151	810.35168	130.21568	490.12149	788.51794	
2654	26.530	-295.85126	14.06505	113.34158	222.90337	18.76030	81.95604	-196.39162	-41.04628	611.48401	320.69916	89.91216	535.77032	-72.79792	805.61627	-76.92412	-157.47037	542.37396	-62.18009	-6.69664	547.47162	-86.45638	-21.34612	491.65250	809.27814	129.33286	489.34406	787.58960	
2655	26.540	-296.14261	14.02245	113.47054	222.66643	18.74425	81.97823	-196.45569	-41.44270	611.48090	322.73438	89.85464	537.57880	-73.44892	805.59680	-77.06036	-158.17323	542.25812	-62.26482	-7.83383	547.40198	-86.87631	-20.72234	490.98260	808.95099	127.90855	489.07925	787.37976	
2656	26.550	-296.31406	13.87878	113.69129	222.48074	18.78435	82.03638	-196.64743	-41.76953	611.55554	326.22858	90.09294	539.59045	-74.34028	805.72229	-77.29263	-159.47786	542.40442	-62.67309	-8.61643	547.44128	-87.10622	-21.26049	490.19882	808.80066	127.31977	488.44949	787.39490	
2657	26.560	-296.49545	13.79197	113.77734	222.33838	18.82302	82.04410	-196.86722	-42.19881	611.62213	329.23911	90.66055	541.46252	-75.38997	805.83289	-77.30011	-160.14264	542.44409	-62.97098	-9.56691	547.73737	-87.82587	-22.31660	489.67590	808.60370	126.31035	487.99207	787.19391	
2658	26.570	-296.65982	13.78021	113.84237	222.22145	18.84859	82.12492	-197.02600	-42.75986	611.74817	332.60434	90.74809	543.64288	-76.43544	805.82776	-77.18845	-160.82687	542.41858	-63.08012	-10.04475	547.84253	-87.98348	-23.32892	489.45541	808.04199	125.61006	487.49667	786.85516	
2659	26.580	-296.94064	13.72172	113.94729	222.00819	18.93104	82.28394	-197.11047	-43.12074	611.75555	335.01733	89.97783	546.15265	-77.19553	805.80157	-77.16481	-161.48427	542.35272	-63.20094	-11.00087	547.87695	-88.40582	-24.10650	488.95901	807.80225	124.71767	487.37128	786.43701	
2660	26.590	-297.13065	13.55322	113.95712	221.94226	18.76994	82.35265	-197.24368	-43.39042	611.80084	337.20242	87.28658	548.13751	-78.10404	805.68451	-77.16763	-162.09900	542.22699	-63.30386	-11.59037	547.81458	-88.43523	-26.20211	489.19266	808.15613	124.06286	487.28644	786.37885	
2661	26.600	-297.27316	13.43046	113.92570	221.75185	18.78024	82.60236	-197.47162	-43.63893	611.83423	339.92041	81.55623	549.64917	-78.68471	805.53778	-77.26060	-162.66922	542.07172	-63.36506	-12.03958	547.86371	-88.33488	-25.52661	488.60291	807.87183	123.53407	487.15198	786.20074	
2662	26.610	-297.40820	13.35582	114.04465	221.49937	18.70708	82.71574	-197.63434	-43.98531	611.83667	341.82269	72.72451	550.82147	-79.09290	805.49512	-77.27161	-163.11238	541.99377	-63.27427	-12.55694	547.86884	-88.26311	-25.82685	488.38937	807.96912	123.05714	486.96475	786.29370	
2663	26.620	-297.60349	13.32404	114.07571	221.31075	18.78755	83.01475	-197.98119	-44.53933	611.86493	343.83969	62.62310	552.02936	-79.48264	805.58875	-77.05282	-163.50624	542.12366	-63.16155	-13.08844	548.08508	-88.07883	-26.64928	487.89288	808.10474	122.59055	486.63831	786.35571	
2664	26.630	-297.78311	13.32154	114.18243	221.14513	18.72943	83.06834	-198.14024	-44.85714	611.89948	345.73474	50.70266	553.21301	-79.66274	805.94635	-76.70353	-163.97104	542.55212	-62.98528	-13.29642	548.02069	-87.28281	-26.93229	487.29788	808.40796	121.58234	486.05383	787.17358	
